<svg width="569" height="382" viewBox="0 0 569 382" fill="none" xmlns="http://www.w3.org/2000/svg">
<rect width="569" height="382" fill="#E5E5E5"/>
<g clip-path="url(#clip0_0_1)">
<path d="M567.73 47.3106H1C0.734784 47.3106 0.480444 47.2052 0.292908 47.0177C0.105371 46.8301 0 46.5758 0 46.3106C0 46.0454 0.105371 45.791 0.292908 45.6035C0.480444 45.4159 0.734784 45.3106 1 45.3106H567.73C567.996 45.3106 568.25 45.4159 568.438 45.6035C568.625 45.791 568.73 46.0454 568.73 46.3106C568.73 46.5758 568.625 46.8301 568.438 47.0177C568.25 47.2052 567.996 47.3106 567.73 47.3106Z" fill="#E6E6E6"/>
<path d="M29.3548 17.2901C34.0253 17.2901 37.8114 13.4196 37.8114 8.64507C37.8114 3.87053 34.0253 0 29.3548 0C24.6844 0 20.8982 3.87053 20.8982 8.64507C20.8982 13.4196 24.6844 17.2901 29.3548 17.2901Z" fill="#E6E6E6"/>
<path d="M58.5686 17.2901C63.239 17.2901 67.0252 13.4196 67.0252 8.64507C67.0252 3.87053 63.239 0 58.5686 0C53.8981 0 50.112 3.87053 50.112 8.64507C50.112 13.4196 53.8981 17.2901 58.5686 17.2901Z" fill="#E6E6E6"/>
<path d="M87.7824 17.2901C92.4528 17.2901 96.239 13.4196 96.239 8.64507C96.239 3.87053 92.4528 0 87.7824 0C83.1119 0 79.3257 3.87053 79.3257 8.64507C79.3257 13.4196 83.1119 17.2901 87.7824 17.2901Z" fill="#E6E6E6"/>
<path d="M121.094 15.4779C120.961 15.478 120.829 15.4515 120.706 15.3998C120.583 15.3482 120.472 15.2724 120.379 15.1771L114.673 9.34408C114.49 9.15727 114.388 8.90627 114.388 8.64486C114.388 8.38345 114.49 8.13244 114.673 7.94564L120.379 2.11312C120.565 1.92642 120.817 1.82073 121.081 1.81905C121.344 1.81738 121.598 1.91986 121.786 2.10418C121.975 2.28849 122.083 2.53975 122.087 2.8033C122.091 3.06686 121.991 3.3214 121.809 3.51156L116.787 8.64486L121.809 13.7786C121.946 13.9194 122.039 14.0976 122.076 14.2909C122.113 14.4843 122.092 14.6842 122.015 14.8657C121.939 15.0471 121.811 15.2019 121.647 15.3108C121.483 15.4197 121.291 15.4779 121.094 15.4779V15.4779Z" fill="#E6E6E6"/>
<path d="M130.682 15.4779C130.485 15.4779 130.293 15.4197 130.129 15.3108C129.965 15.2019 129.837 15.0471 129.76 14.8656C129.684 14.6842 129.663 14.4843 129.7 14.2909C129.737 14.0976 129.83 13.9194 129.967 13.7786L134.989 8.64486L129.967 3.51156C129.785 3.3214 129.685 3.06686 129.689 2.8033C129.693 2.53975 129.801 2.28846 129.989 2.10415C130.178 1.91983 130.431 1.81738 130.695 1.81905C130.959 1.82073 131.211 1.92642 131.397 2.11312L137.103 7.94564C137.285 8.13244 137.388 8.38345 137.388 8.64486C137.388 8.90627 137.285 9.15727 137.103 9.34408L131.397 15.1771C131.304 15.2724 131.193 15.3482 131.07 15.3998C130.947 15.4515 130.815 15.478 130.682 15.4779V15.4779Z" fill="#E6E6E6"/>
<path d="M517.192 1.00089H506.582C506.294 1.0008 506.01 1.05739 505.744 1.16742C505.478 1.27745 505.237 1.43877 505.033 1.64215C504.83 1.84553 504.668 2.08698 504.558 2.35272C504.448 2.61847 504.392 2.90327 504.392 3.19089V13.8109C504.392 14.0985 504.448 14.3833 504.558 14.6491C504.668 14.9148 504.83 15.1563 505.033 15.3597C505.237 15.563 505.478 15.7244 505.744 15.8344C506.01 15.9444 506.294 16.001 506.582 16.0009H517.192C517.774 16.0014 518.332 15.7712 518.745 15.3607C519.157 14.9501 519.39 14.3928 519.392 13.8109V3.19089C519.39 2.60898 519.157 2.05165 518.745 1.64111C518.332 1.23058 517.774 1.00033 517.192 1.00089Z" fill="#E6E6E6"/>
<path d="M491.192 1.00089H480.582C480.294 1.0008 480.01 1.05739 479.744 1.16742C479.478 1.27745 479.237 1.43877 479.033 1.64215C478.83 1.84553 478.668 2.08698 478.558 2.35272C478.448 2.61847 478.392 2.90327 478.392 3.19089V13.8109C478.392 14.0985 478.448 14.3833 478.558 14.6491C478.668 14.9148 478.83 15.1563 479.033 15.3597C479.237 15.563 479.478 15.7244 479.744 15.8344C480.01 15.9444 480.294 16.001 480.582 16.0009H491.192C491.774 16.0014 492.332 15.7712 492.745 15.3607C493.157 14.9501 493.39 14.3928 493.392 13.8109V3.19089C493.39 2.60898 493.157 2.05165 492.745 1.64111C492.332 1.23058 491.774 1.00033 491.192 1.00089Z" fill="#E6E6E6"/>
<path d="M541.692 1.50089H531.082C530.794 1.5008 530.51 1.55739 530.244 1.66742C529.978 1.77745 529.737 1.93877 529.533 2.14215C529.33 2.34553 529.168 2.58698 529.058 2.85272C528.948 3.11847 528.892 3.40327 528.892 3.69089V14.3109C528.892 14.5985 528.948 14.8833 529.058 15.1491C529.168 15.4148 529.33 15.6563 529.533 15.8597C529.737 16.063 529.978 16.2244 530.244 16.3344C530.51 16.4444 530.794 16.501 531.082 16.5009H541.692C542.274 16.5014 542.832 16.2712 543.245 15.8607C543.657 15.4501 543.89 14.8928 543.892 14.3109V3.69089C543.89 3.10898 543.657 2.55165 543.245 2.14111C542.832 1.73058 542.274 1.50033 541.692 1.50089V1.50089Z" fill="#E6E6E6"/>
<path d="M326.77 5.54086H241.96C241.252 5.54086 240.573 5.82218 240.072 6.32291C239.572 6.82363 239.29 7.50275 239.29 8.21088C239.29 8.919 239.572 9.59812 240.072 10.0988C240.573 10.5996 241.252 10.8809 241.96 10.8809H326.77C327.478 10.8809 328.158 10.5996 328.658 10.0988C329.159 9.59812 329.44 8.919 329.44 8.21088C329.44 7.50275 329.159 6.82363 328.658 6.32291C328.158 5.82218 327.478 5.54086 326.77 5.54086V5.54086Z" fill="#E6E6E6"/>
<path d="M184.571 265.8H100.571C96.46 265.8 92.5175 267.433 89.6107 270.34C86.7039 273.247 85.0709 277.189 85.0709 281.3C85.0709 285.411 86.7039 289.354 89.6107 292.26C92.5175 295.167 96.46 296.8 100.571 296.8H184.571C188.682 296.8 192.624 295.167 195.531 292.26C198.438 289.354 200.071 285.411 200.071 281.3C200.071 277.189 198.438 273.247 195.531 270.34C192.624 267.433 188.682 265.8 184.571 265.8V265.8Z" fill="white"/>
<path d="M184.571 297.8H100.571C96.1947 297.8 91.9979 296.062 88.9035 292.968C85.8092 289.873 84.0708 285.676 84.0708 281.3C84.0708 276.924 85.8092 272.727 88.9035 269.633C91.9979 266.539 96.1947 264.8 100.571 264.8H184.571C188.947 264.8 193.144 266.539 196.238 269.633C199.332 272.727 201.071 276.924 201.071 281.3C201.071 285.676 199.332 289.873 196.238 292.968C193.144 296.062 188.947 297.8 184.571 297.8V297.8ZM100.571 266.8C96.7252 266.8 93.037 268.328 90.3177 271.047C87.5985 273.767 86.0708 277.455 86.0708 281.3C86.0708 285.146 87.5985 288.834 90.3177 291.553C93.037 294.273 96.7252 295.8 100.571 295.8H184.571C188.416 295.8 192.105 294.273 194.824 291.553C197.543 288.834 199.071 285.146 199.071 281.3C199.071 277.455 197.543 273.767 194.824 271.047C192.105 268.328 188.416 266.8 184.571 266.8H100.571Z" fill="#700BD5"/>
<path d="M518.666 103.589H291.672C276.902 103.589 264.928 115.563 264.928 130.333V354.436C264.928 369.206 276.902 381.18 291.672 381.18H518.666C533.436 381.18 545.41 369.206 545.41 354.436V130.333C545.41 115.563 533.436 103.589 518.666 103.589Z" fill="#F2F2F2"/>
<path d="M416.108 218.083C415.41 217.32 415.037 216.314 415.069 215.28C415.101 214.246 415.536 213.266 416.279 212.547C416.433 212.404 416.598 212.273 416.773 212.156L413.427 198.714L419.65 194.616L422.244 213.526C422.67 214.289 422.832 215.173 422.704 216.038C422.576 216.903 422.165 217.701 421.536 218.308C421.174 218.65 420.749 218.918 420.284 219.095C419.819 219.273 419.324 219.357 418.826 219.343C418.329 219.329 417.839 219.218 417.385 219.015C416.931 218.812 416.521 218.521 416.179 218.159C416.155 218.134 416.131 218.109 416.108 218.083Z" fill="#FFB6B6"/>
<path d="M422.56 204.83L414.397 205.588L402.276 162.955C402.241 162.837 398.651 150.864 395.026 148.991C393.675 148.294 393.18 147.877 393.2 147.454C393.22 147.016 393.769 146.795 394.527 146.488C395.29 146.215 396.011 145.836 396.667 145.36C398.321 144.053 397.593 142.793 396.587 141.05C396.392 140.712 396.189 140.36 395.994 139.992C395.421 138.906 396.062 134.29 397.901 126.274C398.447 123.875 399.741 121.711 401.595 120.093C403.45 118.476 405.769 117.488 408.22 117.273C409.769 117.134 411.33 117.306 412.812 117.78C414.293 118.253 415.665 119.019 416.846 120.031C418.027 121.043 418.993 122.281 419.688 123.672C420.384 125.063 420.793 126.579 420.894 128.131L422.488 152.82L422.56 204.83Z" fill="#700BD5"/>
<path d="M390.503 356.676L384.825 356.629L382.311 334.216L390.692 334.287L390.503 356.676Z" fill="#FFB6B6"/>
<path d="M372.315 365.706C372.31 366.379 372.572 367.026 373.044 367.506C373.516 367.986 374.159 368.26 374.832 368.266L386.122 368.361L388.098 364.355L388.824 368.381L393.084 368.42L392.008 354.058L390.526 353.96L384.481 353.543L382.531 353.413L382.497 357.476L373.428 363.627C373.088 363.858 372.809 364.167 372.616 364.529C372.422 364.891 372.319 365.295 372.315 365.706V365.706Z" fill="#2F2E41"/>
<path d="M450.286 352.528L444.859 354.196L435.697 333.588L443.708 331.126L450.286 352.528Z" fill="#FFB6B6"/>
<path d="M435.672 366.626C435.871 367.269 436.316 367.808 436.911 368.123C437.506 368.438 438.201 368.505 438.845 368.308L449.636 364.99L450.311 360.574L452.219 364.193L456.291 362.944L450.931 349.578L449.488 349.931L443.599 351.359L441.701 351.823L442.895 355.707L436.106 364.309C435.851 364.631 435.679 365.01 435.604 365.414C435.528 365.818 435.552 366.234 435.672 366.626Z" fill="#2F2E41"/>
<path d="M379.082 168.221L368.246 199.712L367.888 202.232C365.158 204.824 368.588 205.678 367.301 206.362C366.015 207.046 365.15 208.962 366.884 209.304C368.617 209.647 367.938 334.291 375.308 339.06C382.679 343.829 399.693 349.124 398.339 342.141C396.986 335.158 397.482 248.918 397.482 248.918C397.482 248.918 433.661 340.737 436.134 340.765C438.607 340.794 456.284 334.155 455.466 330.971C454.648 327.788 422.543 248.076 424.722 245.01C426.901 241.944 427.731 240.611 425.582 240.411C423.433 240.21 422.798 241.389 422.681 238.415C422.565 235.441 422.194 228.107 422.194 228.107C422.194 228.107 420.638 199.103 409.736 183.079L408.807 173.558L379.082 168.221Z" fill="#2F2E41"/>
<path d="M406.153 108.098L391.783 110.144L390.916 120.549L383.825 131.642C383.825 131.642 368.063 142.734 379.056 160.256L378.343 169.974L413.894 184.282L417.315 121.949L406.153 108.098Z" fill="#700BD5"/>
<path d="M382.061 221.676C381.609 220.746 381.538 219.676 381.862 218.694C382.187 217.712 382.882 216.895 383.8 216.418C383.988 216.324 384.184 216.246 384.385 216.184L385.001 202.345L392.133 200.187L389.239 219.053C389.431 219.906 389.335 220.799 388.966 221.592C388.597 222.385 387.976 223.033 387.2 223.436C386.756 223.661 386.272 223.797 385.776 223.835C385.28 223.873 384.781 223.813 384.308 223.658C383.835 223.503 383.397 223.257 383.02 222.933C382.642 222.609 382.332 222.213 382.107 221.77C382.091 221.739 382.076 221.708 382.061 221.676Z" fill="#FFB6B6"/>
<path d="M392.016 210.807L383.975 209.211L384.485 164.891C384.485 164.768 384.45 152.269 381.507 149.442C380.411 148.389 380.056 147.849 380.195 147.448C380.339 147.035 380.927 146.978 381.742 146.9C382.551 146.856 383.35 146.697 384.114 146.427C386.071 145.645 385.733 144.23 385.264 142.273C385.173 141.893 385.078 141.498 384.997 141.09C384.756 139.886 386.684 135.643 390.727 128.481C391.934 126.337 393.79 124.63 396.028 123.607C398.266 122.584 400.77 122.297 403.182 122.788V122.788C404.706 123.095 406.154 123.705 407.439 124.581C408.724 125.456 409.821 126.58 410.666 127.886C411.51 129.192 412.084 130.654 412.355 132.186C412.626 133.717 412.587 135.287 412.242 136.804L406.745 160.926L392.016 210.807Z" fill="#700BD5"/>
<path d="M397.526 107.719C406.394 107.719 413.583 100.53 413.583 91.6619C413.583 82.7938 406.394 75.6047 397.526 75.6047C388.658 75.6047 381.469 82.7938 381.469 91.6619C381.469 100.53 388.658 107.719 397.526 107.719Z" fill="#FFB6B6"/>
<path d="M418.805 113.928C420.96 117.012 422.402 120.537 423.025 124.248C421.289 125.359 419.267 125.942 417.205 125.928C417.135 125.658 417.065 125.388 416.985 125.118C416.388 123.027 415.499 121.031 414.345 119.188C414.504 121.175 414.234 123.173 413.555 125.048C412.466 124.552 411.298 124.251 410.105 124.158C409.134 124.158 408.175 124.383 407.305 124.818C406.295 121.468 405.365 118.388 404.705 116.178C404.685 121.718 396.565 126.548 387.705 125.848C387.385 125.648 390.595 116.538 390.285 116.328C389.575 115.858 388.885 115.348 388.195 114.848C391.095 110.368 394.245 105.568 393.705 104.848C393.745 105.738 390.565 110.018 387.105 114.058C385.185 112.648 396.095 89.7076 390.705 87.8476C390.615 88.6576 389.425 88.6576 387.975 88.4876C387.593 87.1511 387.024 85.8753 386.285 84.6976C386.381 85.8839 386.239 87.0774 385.865 88.2076C384.434 88.208 383.006 88.3588 381.605 88.6576C381.281 88.1478 380.924 87.66 380.535 87.1976C380.574 87.7612 380.557 88.3272 380.485 88.8876C379.499 88.9994 378.55 89.3272 377.705 89.8476C376.585 89.4376 378.495 87.5876 377.795 86.6276C376.015 84.2276 378.655 80.7276 380.325 78.2476C382.126 75.7559 384.767 73.9997 387.761 73.3031C390.755 72.6065 393.9 73.0166 396.615 74.4576C396.855 73.6276 398.085 73.0776 399.665 72.7076C400.335 72.56 401.02 72.4962 401.705 72.5176C408.505 72.6376 417.945 78.2476 418.315 85.0376C418.345 85.7176 418.395 86.4576 418.445 87.2476C418.925 94.8476 418.335 101.858 423.525 107.418C425.405 109.428 425.425 118.948 424.705 123.848C422.835 121.878 421.505 114.218 418.805 113.928Z" fill="#2F2E41"/>
<path d="M326.787 367.576C326.787 367.732 326.817 367.887 326.877 368.032C326.936 368.177 327.024 368.308 327.135 368.419C327.245 368.529 327.377 368.617 327.521 368.676C327.666 368.736 327.821 368.767 327.977 368.766H493.267C493.583 368.766 493.885 368.641 494.109 368.417C494.332 368.194 494.457 367.892 494.457 367.576C494.457 367.26 494.332 366.958 494.109 366.735C493.885 366.511 493.583 366.386 493.267 366.386H327.977C327.821 366.386 327.666 366.416 327.521 366.476C327.377 366.535 327.245 366.623 327.135 366.733C327.024 366.844 326.936 366.975 326.877 367.12C326.817 367.265 326.787 367.42 326.787 367.576V367.576Z" fill="#CCCCCC"/>
<path d="M247.229 122.492H42.8222C41.6532 122.492 40.532 122.028 39.7053 121.201C38.8786 120.374 38.4142 119.253 38.4142 118.084C38.4142 116.915 38.8786 115.794 39.7053 114.967C40.532 114.14 41.6532 113.676 42.8222 113.676H247.229C248.398 113.676 249.519 114.14 250.346 114.967C251.172 115.794 251.637 116.915 251.637 118.084C251.637 119.253 251.172 120.374 250.346 121.201C249.519 122.028 248.398 122.492 247.229 122.492V122.492Z" fill="#3F3D56"/>
<path d="M247.229 216.492H42.8222C41.6532 216.492 40.532 216.028 39.7053 215.201C38.8786 214.374 38.4142 213.253 38.4142 212.084C38.4142 210.915 38.8786 209.794 39.7053 208.967C40.532 208.14 41.6532 207.676 42.8222 207.676H247.229C248.398 207.676 249.519 208.14 250.346 208.967C251.172 209.794 251.637 210.915 251.637 212.084C251.637 213.253 251.172 214.374 250.346 215.201C249.519 216.028 248.398 216.492 247.229 216.492V216.492Z" fill="#700BD5"/>
<path d="M350.703 169.523H42.8222C41.6532 169.523 40.532 169.058 39.7053 168.232C38.8786 167.405 38.4142 166.284 38.4142 165.115C38.4142 163.946 38.8786 162.824 39.7053 161.998C40.532 161.171 41.6532 160.707 42.8222 160.707H350.703C351.872 160.707 352.993 161.171 353.82 161.998C354.646 162.824 355.111 163.946 355.111 165.115C355.111 166.284 354.646 167.405 353.82 168.232C352.993 169.058 351.872 169.523 350.703 169.523V169.523Z" fill="#700BD5"/>
<path d="M251.636 229.737C251.371 229.737 251.117 229.632 250.929 229.444C250.742 229.257 250.636 229.002 250.636 228.737V195.431C250.636 195.165 250.742 194.911 250.929 194.724C251.117 194.536 251.371 194.431 251.636 194.431C251.901 194.431 252.156 194.536 252.343 194.724C252.531 194.911 252.636 195.165 252.636 195.431V228.737C252.636 229.002 252.531 229.257 252.343 229.444C252.156 229.632 251.901 229.737 251.636 229.737V229.737Z" fill="#3F3D56"/>
<path d="M20.9531 101.1C20.9531 100.834 21.0585 100.58 21.246 100.392C21.4335 100.205 21.6879 100.1 21.9531 100.1H55.2597C55.525 100.1 55.7793 100.205 55.9669 100.392C56.1544 100.58 56.2597 100.834 56.2597 101.1C56.2597 101.365 56.1544 101.619 55.9669 101.807C55.7793 101.994 55.525 102.1 55.2597 102.1H21.9531C21.6879 102.1 21.4335 101.994 21.246 101.807C21.0585 101.619 20.9531 101.365 20.9531 101.1Z" fill="#3F3D56"/>
<path d="M38.6064 135.737C38.3412 135.737 38.0869 135.632 37.8994 135.444C37.7118 135.257 37.6065 135.002 37.6064 134.737V101.431C37.6064 101.165 37.7118 100.911 37.8993 100.724C38.0869 100.536 38.3412 100.431 38.6064 100.431C38.8717 100.431 39.126 100.536 39.3135 100.724C39.5011 100.911 39.6064 101.165 39.6064 101.431V134.737C39.6064 135.002 39.5011 135.257 39.3135 135.444C39.126 135.632 38.8717 135.737 38.6064 135.737V135.737Z" fill="#3F3D56"/>
</g>
<defs>
<clipPath id="clip0_0_1">
<rect width="568.73" height="381.18" fill="white"/>
</clipPath>
</defs>
</svg>
